# xmcd CD database file
#
# Track frame offsets:
#	187
#	19302
#	34472
#
# Disc length: 711 seconds
#
# Revision: 1
# Processed by: cddbd v1.5.1PL0 Copyright (c) Steve Scherf et al.
# Submitted via: CDex 1.51
#
DISCID=2202c503
DTITLE=山崎まさよし - 水のない水槽
DYEAR=1998
DGENRE=Blues
TTITLE0=水のない水槽
TTITLE1=ドレッシング
TTITLE2=水のない水槽 (original karaoke)
EXTD=YEAR: 1998
EXTT0=
EXTT1=
EXTT2=
PLAYORDER=
